<svg aria-roledescription="timeline" role="graphics-document document" viewBox="0 -61 990 677.7999877929688" style="max-width: 990px; background-color: transparent;" xmlns:xlink="http://www.w3.org/1999/xlink" xmlns="http://www.w3.org/2000/svg" width="100%" id="my-svg"><style>#my-svg{font-family:"trebuchet ms",verdana,arial,sans-serif;font-size:16px;fill:#fff;}@keyframes edge-animation-frame{from{stroke-dashoffset:0;}}@keyframes dash{to{stroke-dashoffset:0;}}#my-svg .edge-animation-slow{stroke-dasharray:9,5!important;stroke-dashoffset:900;animation:dash 50s linear infinite;stroke-linecap:round;}#my-svg .edge-animation-fast{stroke-dasharray:9,5!important;stroke-dashoffset:900;animation:dash 20s linear infinite;stroke-linecap:round;}#my-svg .error-icon{fill:#50C878;}#my-svg .error-text{fill:#af3787;stroke:#af3787;}#my-svg .edge-thickness-normal{stroke-width:1px;}#my-svg .edge-thickness-thick{stroke-width:3.5px;}#my-svg .edge-pattern-solid{stroke-dasharray:0;}#my-svg .edge-thickness-invisible{stroke-width:0;fill:none;}#my-svg .edge-pattern-dashed{stroke-dasharray:3;}#my-svg .edge-pattern-dotted{stroke-dasharray:2;}#my-svg .marker{fill:#5D9CEC;stroke:#5D9CEC;}#my-svg .marker.cross{stroke:#5D9CEC;}#my-svg svg{font-family:"trebuchet ms",verdana,arial,sans-serif;font-size:16px;}#my-svg p{margin:0;}#my-svg .edge{stroke-width:3;}#my-svg .section--1 rect,#my-svg .section--1 path,#my-svg .section--1 circle,#my-svg .section--1 path{fill:hsl(212.3684210526, 72.380952381%, 33.8235294118%);}#my-svg .section--1 text{fill:#fff;}#my-svg .node-icon--1{font-size:40px;color:#fff;}#my-svg .section-edge--1{stroke:hsl(212.3684210526, 72.380952381%, 33.8235294118%);}#my-svg .edge-depth--1{stroke-width:17;}#my-svg .section--1 line{stroke:rgb(231.1785714286, 173.6785714284, 106.3214285712);stroke-width:3;}#my-svg .lineWrapper line{stroke:#fff;}#my-svg .disabled,#my-svg .disabled circle,#my-svg .disabled text{fill:lightgray;}#my-svg .disabled text{fill:#efefef;}#my-svg .section-0 rect,#my-svg .section-0 path,#my-svg .section-0 circle,#my-svg .section-0 path{fill:hsl(248.5074626866, 79.7619047619%, 42.0588235294%);}#my-svg .section-0 text{fill:#fff;}#my-svg .node-icon-0{font-size:40px;color:#fff;}#my-svg .section-edge-0{stroke:hsl(248.5074626866, 79.7619047619%, 42.0588235294%);}#my-svg .edge-depth-0{stroke-width:14;}#my-svg .section-0 line{stroke:rgb(209.0357142856, 233.2946428571, 62.2053571429);stroke-width:3;}#my-svg .lineWrapper line{stroke:#fff;}#my-svg .disabled,#my-svg .disabled circle,#my-svg .disabled text{fill:lightgray;}#my-svg .disabled text{fill:#efefef;}#my-svg .section-1 rect,#my-svg .section-1 path,#my-svg .section-1 circle,#my-svg .section-1 path{fill:hsl(140, 52.1739130435%, 29.9019607843%);}#my-svg .section-1 text{fill:#fff;}#my-svg .node-icon-1{font-size:40px;color:#fff;}#my-svg .section-edge-1{stroke:hsl(140, 52.1739130435%, 29.9019607843%);}#my-svg .edge-depth-1{stroke-width:11;}#my-svg .section-1 line{stroke:rgb(218.5326086957, 138.9673913044, 192.0108695653);stroke-width:3;}#my-svg .lineWrapper line{stroke:#fff;}#my-svg .disabled,#my-svg .disabled circle,#my-svg .disabled text{fill:lightgray;}#my-svg .disabled text{fill:#efefef;}#my-svg .section-2 rect,#my-svg .section-2 path,#my-svg .section-2 circle,#my-svg .section-2 path{fill:hsl(242.3684210526, 72.380952381%, 33.8235294118%);}#my-svg .section-2 text{fill:#fff;}#my-svg .node-icon-2{font-size:40px;color:#fff;}#my-svg .section-edge-2{stroke:hsl(242.3684210526, 72.380952381%, 33.8235294118%);}#my-svg .edge-depth-2{stroke-width:8;}#my-svg .section-2 line{stroke:rgb(226.2500000001, 231.1785714286, 106.3214285712);stroke-width:3;}#my-svg .lineWrapper line{stroke:#fff;}#my-svg .disabled,#my-svg .disabled circle,#my-svg .disabled text{fill:lightgray;}#my-svg .disabled text{fill:#efefef;}#my-svg .section-3 rect,#my-svg .section-3 path,#my-svg .section-3 circle,#my-svg .section-3 path{fill:hsl(272.3684210526, 72.380952381%, 33.8235294118%);}#my-svg .section-3 text{fill:#fff;}#my-svg .node-icon-3{font-size:40px;color:#fff;}#my-svg .section-edge-3{stroke:hsl(272.3684210526, 72.380952381%, 33.8235294118%);}#my-svg .edge-depth-3{stroke-width:5;}#my-svg .section-3 line{stroke:rgb(163.8214285714, 231.1785714286, 106.3214285712);stroke-width:3;}#my-svg .lineWrapper line{stroke:#fff;}#my-svg .disabled,#my-svg .disabled circle,#my-svg .disabled text{fill:lightgray;}#my-svg .disabled text{fill:#efefef;}#my-svg .section-4 rect,#my-svg .section-4 path,#my-svg .section-4 circle,#my-svg .section-4 path{fill:hsl(302.3684210526, 72.380952381%, 33.8235294118%);}#my-svg .section-4 text{fill:#fff;}#my-svg .node-icon-4{font-size:40px;color:#fff;}#my-svg .section-edge-4{stroke:hsl(302.3684210526, 72.380952381%, 33.8235294118%);}#my-svg .edge-depth-4{stroke-width:2;}#my-svg .section-4 line{stroke:rgb(106.3214285712, 231.1785714286, 111.2499999997);stroke-width:3;}#my-svg .lineWrapper line{stroke:#fff;}#my-svg .disabled,#my-svg .disabled circle,#my-svg .disabled text{fill:lightgray;}#my-svg .disabled text{fill:#efefef;}#my-svg .section-5 rect,#my-svg .section-5 path,#my-svg .section-5 circle,#my-svg .section-5 path{fill:hsl(332.3684210526, 72.380952381%, 33.8235294118%);}#my-svg .section-5 text{fill:#fff;}#my-svg .node-icon-5{font-size:40px;color:#fff;}#my-svg .section-edge-5{stroke:hsl(332.3684210526, 72.380952381%, 33.8235294118%);}#my-svg .edge-depth-5{stroke-width:-1;}#my-svg .section-5 line{stroke:rgb(106.3214285712, 231.1785714286, 173.6785714284);stroke-width:3;}#my-svg .lineWrapper line{stroke:#fff;}#my-svg .disabled,#my-svg .disabled circle,#my-svg .disabled text{fill:lightgray;}#my-svg .disabled text{fill:#efefef;}#my-svg .section-6 rect,#my-svg .section-6 path,#my-svg .section-6 circle,#my-svg .section-6 path{fill:hsl(2.3684210526, 72.380952381%, 33.8235294118%);}#my-svg .section-6 text{fill:#fff;}#my-svg .node-icon-6{font-size:40px;color:#fff;}#my-svg .section-edge-6{stroke:hsl(2.3684210526, 72.380952381%, 33.8235294118%);}#my-svg .edge-depth-6{stroke-width:-4;}#my-svg .section-6 line{stroke:rgb(106.3214285712, 226.2500000001, 231.1785714286);stroke-width:3;}#my-svg .lineWrapper line{stroke:#fff;}#my-svg .disabled,#my-svg .disabled circle,#my-svg .disabled text{fill:lightgray;}#my-svg .disabled text{fill:#efefef;}#my-svg .section-7 rect,#my-svg .section-7 path,#my-svg .section-7 circle,#my-svg .section-7 path{fill:hsl(62.3684210526, 72.380952381%, 75%);}#my-svg .section-7 text{fill:#fff;}#my-svg .node-icon-7{font-size:40px;color:#fff;}#my-svg .section-edge-7{stroke:hsl(62.3684210526, 72.380952381%, 75%);}#my-svg .edge-depth-7{stroke-width:-7;}#my-svg .section-7 line{stroke:rgb(21.2499999999, 17.6071428571, 109.8928571429);stroke-width:3;}#my-svg .lineWrapper line{stroke:#fff;}#my-svg .disabled,#my-svg .disabled circle,#my-svg .disabled text{fill:lightgray;}#my-svg .disabled text{fill:#efefef;}#my-svg .section-8 rect,#my-svg .section-8 path,#my-svg .section-8 circle,#my-svg .section-8 path{fill:hsl(122.3684210526, 72.380952381%, 33.8235294118%);}#my-svg .section-8 text{fill:#fff;}#my-svg .node-icon-8{font-size:40px;color:#fff;}#my-svg .section-edge-8{stroke:hsl(122.3684210526, 72.380952381%, 33.8235294118%);}#my-svg .edge-depth-8{stroke-width:-10;}#my-svg .section-8 line{stroke:rgb(231.1785714286, 106.3214285712, 226.2500000001);stroke-width:3;}#my-svg .lineWrapper line{stroke:#fff;}#my-svg .disabled,#my-svg .disabled circle,#my-svg .disabled text{fill:lightgray;}#my-svg .disabled text{fill:#efefef;}#my-svg .section-9 rect,#my-svg .section-9 path,#my-svg .section-9 circle,#my-svg .section-9 path{fill:hsl(152.3684210526, 72.380952381%, 33.8235294118%);}#my-svg .section-9 text{fill:#fff;}#my-svg .node-icon-9{font-size:40px;color:#fff;}#my-svg .section-edge-9{stroke:hsl(152.3684210526, 72.380952381%, 33.8235294118%);}#my-svg .edge-depth-9{stroke-width:-13;}#my-svg .section-9 line{stroke:rgb(231.1785714286, 106.3214285712, 163.8214285714);stroke-width:3;}#my-svg .lineWrapper line{stroke:#fff;}#my-svg .disabled,#my-svg .disabled circle,#my-svg .disabled text{fill:lightgray;}#my-svg .disabled text{fill:#efefef;}#my-svg .section-10 rect,#my-svg .section-10 path,#my-svg .section-10 circle,#my-svg .section-10 path{fill:hsl(182.3684210526, 72.380952381%, 33.8235294118%);}#my-svg .section-10 text{fill:#fff;}#my-svg .node-icon-10{font-size:40px;color:#fff;}#my-svg .section-edge-10{stroke:hsl(182.3684210526, 72.380952381%, 33.8235294118%);}#my-svg .edge-depth-10{stroke-width:-16;}#my-svg .section-10 line{stroke:rgb(231.1785714286, 111.2499999997, 106.3214285712);stroke-width:3;}#my-svg .lineWrapper line{stroke:#fff;}#my-svg .disabled,#my-svg .disabled circle,#my-svg .disabled text{fill:lightgray;}#my-svg .disabled text{fill:#efefef;}#my-svg .section-root rect,#my-svg .section-root path,#my-svg .section-root circle{fill:hsl(212.3684210526, 72.380952381%, 33.8235294118%);}#my-svg .section-root text{fill:#fff;}#my-svg .icon-container{height:100%;display:flex;justify-content:center;align-items:center;}#my-svg .edge{fill:none;}#my-svg .eventWrapper{filter:brightness(120%);}#my-svg :root{--mermaid-font-family:"trebuchet ms",verdana,arial,sans-serif;}</style><g/><g/><defs><marker orient="auto" markerHeight="4" markerWidth="6" refY="2" refX="5" id="arrowhead"><path d="M 0,0 V 4 L6,2 Z"/></marker></defs><g transform="translate(100, 50)"><g class="timeline-node section--1"><g><path d="M0 62.8 v-57.8 q0,-5 5,-5 h180 q5,0 5,5 v62.8 H0 Z" class="node-bkg node-undefined" id="node-undefined"/><line y2="67.8" x2="190" y1="67.8" x1="0" class="node-line--1"/></g><g transform="translate(95, 10)"><text text-anchor="middle" dominant-baseline="middle" alignment-baseline="middle" dy="1em"><tspan dy="1em" x="0">2023年</tspan></text></g></g></g><g transform="translate(100, 167.8)" class="taskWrapper"><g class="timeline-node section--1"><g><path d="M0 62.8 v-57.8 q0,-5 5,-5 h180 q5,0 5,5 v62.8 H0 Z" class="node-bkg node-undefined" id="node-undefined"/><line y2="67.8" x2="190" y1="67.8" x1="0" class="node-line--1"/></g><g transform="translate(95, 10)"><text text-anchor="middle" dominant-baseline="middle" alignment-baseline="middle" dy="1em"><tspan dy="1em" x="0">Chatbot时代</tspan></text></g></g></g><g class="lineWrapper"><line stroke-dasharray="5,5" marker-end="url(#arrowhead)" stroke="black" stroke-width="2" y2="566.8" x2="195" y1="235.60000000000002" x1="195"/></g><g transform="translate(100, 367.8)" class="eventWrapper"><g class="timeline-node section--1"><g><path d="M0 45 v-40 q0,-5 5,-5 h180 q5,0 5,5 v45 H0 Z" class="node-bkg node-undefined" id="node-undefined"/><line y2="50" x2="190" y1="50" x1="0" class="node-line--1"/></g><g transform="translate(95, 10)"><text text-anchor="middle" dominant-baseline="middle" alignment-baseline="middle" dy="1em"><tspan dy="1em" x="0">被动问答模式</tspan></text></g></g></g><g transform="translate(100, 427.8)" class="eventWrapper"><g class="timeline-node section--1"><g><path d="M0 45 v-40 q0,-5 5,-5 h180 q5,0 5,5 v45 H0 Z" class="node-bkg node-undefined" id="node-undefined"/><line y2="50" x2="190" y1="50" x1="0" class="node-line--1"/></g><g transform="translate(95, 10)"><text text-anchor="middle" dominant-baseline="middle" alignment-baseline="middle" dy="1em"><tspan dy="1em" x="0">用户提问，AI回答</tspan></text></g></g></g><g transform="translate(100, 487.8)" class="eventWrapper"><g class="timeline-node section--1"><g><path d="M0 45 v-40 q0,-5 5,-5 h180 q5,0 5,5 v45 H0 Z" class="node-bkg node-undefined" id="node-undefined"/><line y2="50" x2="190" y1="50" x1="0" class="node-line--1"/></g><g transform="translate(95, 10)"><text text-anchor="middle" dominant-baseline="middle" alignment-baseline="middle" dy="1em"><tspan dy="1em" x="0">单轮对话为主</tspan></text></g></g></g><g transform="translate(300, 50)"><g class="timeline-node section-0"><g><path d="M0 62.8 v-57.8 q0,-5 5,-5 h180 q5,0 5,5 v62.8 H0 Z" class="node-bkg node-undefined" id="node-undefined"/><line y2="67.8" x2="190" y1="67.8" x1="0" class="node-line-0"/></g><g transform="translate(95, 10)"><text text-anchor="middle" dominant-baseline="middle" alignment-baseline="middle" dy="1em"><tspan dy="1em" x="0">2024年</tspan></text></g></g></g><g transform="translate(300, 167.8)" class="taskWrapper"><g class="timeline-node section-0"><g><path d="M0 62.8 v-57.8 q0,-5 5,-5 h180 q5,0 5,5 v62.8 H0 Z" class="node-bkg node-undefined" id="node-undefined"/><line y2="67.8" x2="190" y1="67.8" x1="0" class="node-line-0"/></g><g transform="translate(95, 10)"><text text-anchor="middle" dominant-baseline="middle" alignment-baseline="middle" dy="1em"><tspan dy="1em" x="0">Workflow   +   RAG时代</tspan></text></g></g></g><g class="lineWrapper"><line stroke-dasharray="5,5" marker-end="url(#arrowhead)" stroke="black" stroke-width="2" y2="566.8" x2="395" y1="235.60000000000002" x1="395"/></g><g transform="translate(300, 367.8)" class="eventWrapper"><g class="timeline-node section-0"><g><path d="M0 45 v-40 q0,-5 5,-5 h180 q5,0 5,5 v45 H0 Z" class="node-bkg node-undefined" id="node-undefined"/><line y2="50" x2="190" y1="50" x1="0" class="node-line-0"/></g><g transform="translate(95, 10)"><text text-anchor="middle" dominant-baseline="middle" alignment-baseline="middle" dy="1em"><tspan dy="1em" x="0">流程自动化</tspan></text></g></g></g><g transform="translate(300, 427.8)" class="eventWrapper"><g class="timeline-node section-0"><g><path d="M0 45 v-40 q0,-5 5,-5 h180 q5,0 5,5 v45 H0 Z" class="node-bkg node-undefined" id="node-undefined"/><line y2="50" x2="190" y1="50" x1="0" class="node-line-0"/></g><g transform="translate(95, 10)"><text text-anchor="middle" dominant-baseline="middle" alignment-baseline="middle" dy="1em"><tspan dy="1em" x="0">知识库检索增强</tspan></text></g></g></g><g transform="translate(300, 487.8)" class="eventWrapper"><g class="timeline-node section-0"><g><path d="M0 45 v-40 q0,-5 5,-5 h180 q5,0 5,5 v45 H0 Z" class="node-bkg node-undefined" id="node-undefined"/><line y2="50" x2="190" y1="50" x1="0" class="node-line-0"/></g><g transform="translate(95, 10)"><text text-anchor="middle" dominant-baseline="middle" alignment-baseline="middle" dy="1em"><tspan dy="1em" x="0">多步骤任务编排</tspan></text></g></g></g><g transform="translate(500, 50)"><g class="timeline-node section-1"><g><path d="M0 62.8 v-57.8 q0,-5 5,-5 h180 q5,0 5,5 v62.8 H0 Z" class="node-bkg node-undefined" id="node-undefined"/><line y2="67.8" x2="190" y1="67.8" x1="0" class="node-line-1"/></g><g transform="translate(95, 10)"><text text-anchor="middle" dominant-baseline="middle" alignment-baseline="middle" dy="1em"><tspan dy="1em" x="0">2025年</tspan></text></g></g></g><g transform="translate(500, 167.8)" class="taskWrapper"><g class="timeline-node section-1"><g><path d="M0 62.8 v-57.8 q0,-5 5,-5 h180 q5,0 5,5 v62.8 H0 Z" class="node-bkg node-undefined" id="node-undefined"/><line y2="67.8" x2="190" y1="67.8" x1="0" class="node-line-1"/></g><g transform="translate(95, 10)"><text text-anchor="middle" dominant-baseline="middle" alignment-baseline="middle" dy="1em"><tspan dy="1em" x="0">MCP时代</tspan></text></g></g></g><g class="lineWrapper"><line stroke-dasharray="5,5" marker-end="url(#arrowhead)" stroke="black" stroke-width="2" y2="566.8" x2="595" y1="235.60000000000002" x1="595"/></g><g transform="translate(500, 367.8)" class="eventWrapper"><g class="timeline-node section-1"><g><path d="M0 45 v-40 q0,-5 5,-5 h180 q5,0 5,5 v45 H0 Z" class="node-bkg node-undefined" id="node-undefined"/><line y2="50" x2="190" y1="50" x1="0" class="node-line-1"/></g><g transform="translate(95, 10)"><text text-anchor="middle" dominant-baseline="middle" alignment-baseline="middle" dy="1em"><tspan dy="1em" x="0">工具连接协议</tspan></text></g></g></g><g transform="translate(500, 427.8)" class="eventWrapper"><g class="timeline-node section-1"><g><path d="M0 45 v-40 q0,-5 5,-5 h180 q5,0 5,5 v45 H0 Z" class="node-bkg node-undefined" id="node-undefined"/><line y2="50" x2="190" y1="50" x1="0" class="node-line-1"/></g><g transform="translate(95, 10)"><text text-anchor="middle" dominant-baseline="middle" alignment-baseline="middle" dy="1em"><tspan dy="1em" x="0">标准化集成</tspan></text></g></g></g><g transform="translate(500, 487.8)" class="eventWrapper"><g class="timeline-node section-1"><g><path d="M0 45 v-40 q0,-5 5,-5 h180 q5,0 5,5 v45 H0 Z" class="node-bkg node-undefined" id="node-undefined"/><line y2="50" x2="190" y1="50" x1="0" class="node-line-1"/></g><g transform="translate(95, 10)"><text text-anchor="middle" dominant-baseline="middle" alignment-baseline="middle" dy="1em"><tspan dy="1em" x="0">跨平台互联</tspan></text></g></g></g><g transform="translate(700, 50)"><g class="timeline-node section-2"><g><path d="M0 62.8 v-57.8 q0,-5 5,-5 h180 q5,0 5,5 v62.8 H0 Z" class="node-bkg node-undefined" id="node-undefined"/><line y2="67.8" x2="190" y1="67.8" x1="0" class="node-line-2"/></g><g transform="translate(95, 10)"><text text-anchor="middle" dominant-baseline="middle" alignment-baseline="middle" dy="1em"><tspan dy="1em" x="0">2026年</tspan></text></g></g></g><g transform="translate(700, 167.8)" class="taskWrapper"><g class="timeline-node section-2"><g><path d="M0 62.8 v-57.8 q0,-5 5,-5 h180 q5,0 5,5 v62.8 H0 Z" class="node-bkg node-undefined" id="node-undefined"/><line y2="67.8" x2="190" y1="67.8" x1="0" class="node-line-2"/></g><g transform="translate(95, 10)"><text text-anchor="middle" dominant-baseline="middle" alignment-baseline="middle" dy="1em"><tspan dy="1em" x="0">Agent   +   Skill时代</tspan></text></g></g></g><g class="lineWrapper"><line stroke-dasharray="5,5" marker-end="url(#arrowhead)" stroke="black" stroke-width="2" y2="566.8" x2="795" y1="235.60000000000002" x1="795"/></g><g transform="translate(700, 367.8)" class="eventWrapper"><g class="timeline-node section-2"><g><path d="M0 45 v-40 q0,-5 5,-5 h180 q5,0 5,5 v45 H0 Z" class="node-bkg node-undefined" id="node-undefined"/><line y2="50" x2="190" y1="50" x1="0" class="node-line-2"/></g><g transform="translate(95, 10)"><text text-anchor="middle" dominant-baseline="middle" alignment-baseline="middle" dy="1em"><tspan dy="1em" x="0">自主执行任务</tspan></text></g></g></g><g transform="translate(700, 427.8)" class="eventWrapper"><g class="timeline-node section-2"><g><path d="M0 45 v-40 q0,-5 5,-5 h180 q5,0 5,5 v45 H0 Z" class="node-bkg node-undefined" id="node-undefined"/><line y2="50" x2="190" y1="50" x1="0" class="node-line-2"/></g><g transform="translate(95, 10)"><text text-anchor="middle" dominant-baseline="middle" alignment-baseline="middle" dy="1em"><tspan dy="1em" x="0">技能组合调用</tspan></text></g></g></g><g transform="translate(700, 487.8)" class="eventWrapper"><g class="timeline-node section-2"><g><path d="M0 45 v-40 q0,-5 5,-5 h180 q5,0 5,5 v45 H0 Z" class="node-bkg node-undefined" id="node-undefined"/><line y2="50" x2="190" y1="50" x1="0" class="node-line-2"/></g><g transform="translate(95, 10)"><text text-anchor="middle" dominant-baseline="middle" alignment-baseline="middle" dy="1em"><tspan dy="1em" x="0">智能决策系统</tspan></text></g></g></g><text y="20" font-weight="bold" font-size="4ex" x="345">AI使用姿势演进历程</text><g class="lineWrapper"><line marker-end="url(#arrowhead)" stroke="black" stroke-width="4" y2="285.6" x2="940" y1="285.6" x1="50"/></g></svg>