<svg xmlns="http://www.w3.org/2000/svg" width="1200" height="800" viewBox="0 0 1200 800" role="img" aria-label="Huiben 儿童绘本应用预览">
  <rect width="1200" height="800" fill="#fff7ea"/>
  <rect x="72" y="70" width="1056" height="660" rx="20" fill="#ffffff" stroke="#eadbc7" stroke-width="4"/>
  <rect x="116" y="122" width="300" height="556" rx="12" fill="#fff3dc" stroke="#eadbc7" stroke-width="3"/>
  <rect x="466" y="122" width="614" height="556" rx="12" fill="#ffffff" stroke="#eadbc7" stroke-width="3"/>
  <rect x="154" y="172" width="224" height="42" rx="8" fill="#ffffff" stroke="#dccbb4" stroke-width="3"/>
  <rect x="154" y="250" width="96" height="40" rx="8" fill="#dff0e6"/>
  <rect x="266" y="250" width="92" height="40" rx="8" fill="#ffffff" stroke="#eadbc7" stroke-width="3"/>
  <rect x="154" y="326" width="224" height="110" rx="8" fill="#ffffff" stroke="#dccbb4" stroke-width="3"/>
  <rect x="154" y="470" width="224" height="54" rx="8" fill="#4f9f7a"/>
  <rect x="510" y="166" width="238" height="392" rx="10" fill="#84b9d9"/>
  <path d="M510 430c64-44 146-34 238-8v136H510z" fill="#78b988"/>
  <circle cx="686" cy="222" r="48" fill="#f7c65d"/>
  <ellipse cx="616" cy="316" rx="70" ry="28" fill="#ffffff" opacity=".8"/>
  <rect x="783" y="166" width="252" height="392" rx="10" fill="#fffaf1"/>
  <text x="816" y="256" fill="#22313f" font-family="Arial,'PingFang SC',sans-serif" font-size="46" font-weight="700">小雨和</text>
  <text x="816" y="314" fill="#22313f" font-family="Arial,'PingFang SC',sans-serif" font-size="46" font-weight="700">会发光的口袋</text>
  <text x="816" y="382" fill="#52626d" font-family="Arial,'PingFang SC',sans-serif" font-size="25">一本孩子专属的睡前绘本</text>
  <rect x="510" y="594" width="64" height="44" rx="8" fill="#dff0e6"/>
  <rect x="586" y="594" width="64" height="44" rx="8" fill="#ffffff" stroke="#eadbc7" stroke-width="3"/>
  <rect x="662" y="594" width="64" height="44" rx="8" fill="#ffffff" stroke="#eadbc7" stroke-width="3"/>
  <rect x="738" y="594" width="64" height="44" rx="8" fill="#ffffff" stroke="#eadbc7" stroke-width="3"/>
</svg>
